<svg width="14" height="8" viewBox="0 0 14 8" fill="none" xmlns="http://www.w3.org/2000/svg">
<path fill-rule="evenodd" clip-rule="evenodd" d="M0.646001 0.646008C0.692447 0.599445 0.747622 0.562502 0.808368 0.537296C0.869113 0.512089 0.934234 0.499115 1 0.499115C1.06577 0.499115 1.13089 0.512089 1.19163 0.537296C1.25238 0.562502 1.30756 0.599445 1.354 0.646008L7 6.29301L12.646 0.646008C12.7399 0.552122 12.8672 0.499377 13 0.499377C13.1328 0.499377 13.2601 0.552122 13.354 0.646008C13.4479 0.739895 13.5006 0.867233 13.5006 1.00001C13.5006 1.13278 13.4479 1.26012 13.354 1.35401L7.354 7.35401C7.30756 7.40057 7.25238 7.43751 7.19163 7.46272C7.13089 7.48793 7.06577 7.5009 7 7.5009C6.93423 7.5009 6.86911 7.48793 6.80837 7.46272C6.74762 7.43751 6.69245 7.40057 6.646 7.35401L0.646001 1.35401C0.599438 1.30756 0.562495 1.25239 0.537289 1.19164C0.512082 1.1309 0.499107 1.06578 0.499107 1.00001C0.499107 0.934241 0.512082 0.86912 0.537289 0.808375C0.562495 0.74763 0.599438 0.692454 0.646001 0.646008Z" fill="#6F6F6F"/>
</svg>
