<svg width="26" height="21" viewBox="0 0 26 21" fill="none" xmlns="http://www.w3.org/2000/svg">
<path d="M25.4245 2.51782C24.4913 2.93135 23.4888 3.21076 22.4348 3.33705C23.5223 2.68635 24.3359 1.66222 24.7238 0.455759C23.7021 1.06263 22.5839 1.4898 21.4178 1.7187C20.6336 0.881432 19.595 0.326477 18.4631 0.139995C17.3312 -0.046487 16.1694 0.145938 15.1581 0.687395C14.1468 1.22885 13.3425 2.08905 12.8702 3.13443C12.3978 4.17981 12.2838 5.35189 12.5459 6.4687C10.4757 6.36476 8.45041 5.82667 6.6016 4.88936C4.75278 3.95205 3.12171 2.63647 1.81424 1.02799C1.36718 1.79917 1.11012 2.69329 1.11012 3.64552C1.10962 4.50275 1.32072 5.34685 1.72469 6.10293C2.12866 6.85901 2.71301 7.50368 3.42589 7.97976C2.59914 7.95345 1.79063 7.73006 1.06765 7.32817V7.39523C1.06757 8.59753 1.48345 9.76283 2.24474 10.6934C3.00603 11.624 4.06582 12.2625 5.2443 12.5006C4.47735 12.7082 3.67327 12.7388 2.89277 12.5901C3.22527 13.6246 3.87294 14.5292 4.74512 15.1773C5.6173 15.8254 6.67032 16.1846 7.75677 16.2045C5.91247 17.6523 3.63476 18.4377 1.29006 18.4342C0.874726 18.4343 0.459738 18.4101 0.0472412 18.3616C2.42724 19.8918 5.19774 20.704 8.02724 20.7008C17.6055 20.7008 22.8417 12.7678 22.8417 5.88752C22.8417 5.66399 22.8361 5.43823 22.826 5.2147C23.8445 4.47814 24.7237 3.56605 25.4223 2.52117L25.4245 2.51782Z" fill="#646464"/>
</svg>
